# xmcd CD database file
#
# Track frame offsets:
#	150
#	18565
#	30564
#	52183
#	79346
#	95779
#	108295
#	127320
#	147516
#	159695
#	173112
#	191021
#	211314
#	221126
#
# Disc length: 3178 seconds
#
# Revision: 0
# Processed by: cddbd v1.4PL0 Copyright (c) Steve Scherf et al.
# Submitted via: CDex 1.50Beta7
#
DISCID=da0c680e
DTITLE=KRG Big Band Neustadt-Weinstrasse Germany - Werner Straight Ahead
DYEAR=1999
DGENRE=Blues
TTITLE0=Basie Straight Ahead
TTITLE1=For Once In My Life (Andrea Pommer)
TTITLE2=Birdland
TTITLE3=Mustang Sally
TTITLE4=Jailhouse Rock (Hagen Grohe)
TTITLE5=Chameleon
TTITLE6=Honky Tonk Shuffle
TTITLE7=Kissin' Cousins
TTITLE8=Gimme Some Lovin' (Hagen Grohe)
TTITLE9=Evil Ways (Hagen Grohe)
TTITLE10=Flashdance (Andrea Pommer)
TTITLE11=Gumshoe
TTITLE12=Blue Skies (Jazz Choir)
TTITLE13=Tuxedo Junction (Jazz Choir)
EXTD=YEAR: 1999
EXTT0=
EXTT1=
EXTT2=
EXTT3=
EXTT4=
EXTT5=
EXTT6=
EXTT7=
EXTT8=
EXTT9=
EXTT10=
EXTT11=
EXTT12=
EXTT13=
PLAYORDER=
